<svg xmlns="http://www.w3.org/2000/svg" width="929.333" height="929.333" preserveAspectRatio="xMidYMid meet" version="1.0" viewBox="0 0 697 697"><metadata>Created by potrace 1.14, written by Peter Selinger 2001-2017</metadata><g fill="#000" stroke="none"><path d="M2575 6369 c-34 -20 -66 -53 -82 -83 -10 -20 -25 -130 -44 -335 -30 -321 -37 -389 -71 -666 -38 -318 -110 -524 -222 -639 -44 -45 -84 -70 -243 -149 -383 -192 -642 -372 -876 -609 -526 -533 -795 -1196 -774 -1913 6 -224 30 -371 86 -543 43 -131 116 -282 185 -386 25 -38 46 -70 46 -71 0 -2 -51 -5 -113 -7 -107 -3 -116 -5 -150 -31 -47 -36 -67 -75 -67 -129 0 -57 35 -117 85 -145 l40 -23 2200 1 c1728 1 2183 4 2120 13 -92 14 -111 22 -153 70 -76 87 -44 234 61 285 44 21 53 22 409 19 l363 -3 41 -27 c51 -33 82 -81 90 -141 10 -68 -31 -147 -94 -185 l-47 -27 160 -3 c88 -1 397 -1 686 0 l526 3 36 28 c48 36 67 75 67 133 0 60 -31 115 -80 143 -30 17 -55 21 -119 21 l-81 0 44 64 c47 68 85 160 113 271 17 65 18 160 18 1430 l0 1360 -28 80 c-80 226 -249 383 -472 436 -83 19 -111 20 -495 17 l-407 -3 -69 -35 c-55 -28 -74 -45 -99 -84 l-30 -49 -3 -216 c-2 -209 -1 -217 20 -255 58 -100 197 -107 254 -12 16 25 20 58 24 176 l5 145 335 0 c325 0 337 -1 392 -23 74 -30 138 -80 177 -139 64 -97 61 -22 61 -1402 0 -769 -4 -1283 -10 -1326 -20 -142 -114 -276 -237 -336 -43 -22 -64 -24 -208 -27 l-161 -4 -46 61 c-85 109 -204 185 -346 222 -70 18 -115 19 -663 19 l-587 0 -25 43 c-31 52 -91 108 -147 137 l-40 20 0 378 0 377 173 345 c235 467 291 639 318 966 23 281 -16 529 -123 788 l-28 69 58 61 c154 167 244 441 215 658 -6 46 -26 128 -44 183 -38 118 -38 107 1 480 17 154 30 306 30 338 0 151 -135 246 -245 171 -21 -14 -77 -60 -125 -102 -209 -186 -325 -282 -340 -282 -4 0 -42 9 -86 20 -135 35 -353 26 -513 -20 -33 -9 -36 -7 -130 74 -53 46 -139 123 -191 171 -171 156 -174 159 -244 162 -34 2 -70 -2 -81 -8z m1056 -1098 c35 -34 39 -44 39 -87 0 -154 -186 -199 -254 -61 -25 53 -15 101 34 149 34 34 43 38 90 38 47 0 56 -4 91 -39z m580 16 c79 -52 87 -141 19 -209 -31 -32 -44 -38 -79 -38 -23 0 -55 7 -72 15 -86 45 -93 195 -11 239 41 23 103 20 143 -7z m-159 -477 c48 -47 47 -66 -9 -148 -42 -62 -87 -102 -113 -102 -47 0 -150 133 -150 193 0 69 43 96 154 97 78 0 78 0 118 -40z m-576 -520 c96 -33 238 -46 352 -31 53 6 109 14 123 17 24 5 27 2 62 -103 73 -213 89 -372 63 -598 -25 -219 -80 -398 -196 -643 -60 -125 -242 -453 -248 -447 -2 2 8 72 22 157 63 381 60 667 -10 898 -33 108 -68 177 -164 322 -96 144 -114 194 -108 297 4 64 28 151 41 151 2 0 30 -9 63 -20z m-1123 -1270 c224 -50 457 -195 588 -368 57 -75 140 -235 163 -312 31 -103 46 -241 46 -426 0 -169 -1 -184 -23 -224 -53 -100 -192 -107 -254 -13 -16 23 -19 58 -24 258 -5 217 -7 235 -33 310 -42 123 -90 201 -175 285 -142 139 -287 202 -476 204 -87 0 -126 -4 -190 -22 -241 -70 -403 -235 -459 -468 -10 -39 -26 -86 -37 -103 -25 -41 -98 -75 -140 -66 -39 9 -89 51 -105 92 -49 116 36 361 188 544 209 251 602 382 931 309z m-1517 -1239 c41 -25 78 -75 94 -126 45 -145 148 -268 276 -331 l78 -39 1245 -5 c918 -4 1251 -8 1266 -17 32 -18 61 -55 74 -92 23 -71 -26 -155 -106 -179 -64 -19 -2435 -17 -2523 2 -154 34 -282 107 -405 231 -132 134 -199 267 -200 400 0 69 3 85 24 114 42 59 119 77 177 42z" transform="translate(0.000000,697.000000) scale(0.100000,-0.100000)"/><path d="M4757 3476 c-70 -25 -107 -76 -107 -147 0 -56 31 -103 84 -129 43 -20 52 -20 669 -18 617 3 626 3 654 24 15 11 39 36 51 55 47 68 11 172 -72 210 -39 17 -77 19 -641 18 -480 0 -608 -3 -638 -13z" transform="translate(0.000000,697.000000) scale(0.100000,-0.100000)"/><path d="M4741 2654 c-25 -32 -27 -20 56 -279 175 -541 209 -641 225 -657 63 -63 179 4 163 95 -4 27 1 39 35 76 l40 44 148 -140 c81 -77 157 -145 169 -151 12 -7 41 -12 65 -12 110 0 182 116 131 213 -9 18 -75 92 -147 165 l-130 133 29 24 c24 19 42 24 87 25 50 0 59 3 82 31 51 60 24 112 -81 154 -75 30 -667 256 -750 286 -71 26 -97 24 -122 -7z" transform="translate(0.000000,697.000000) scale(0.100000,-0.100000)"/></g></svg>